<svg width="19" height="19" xmlns="http://www.w3.org/2000/svg" xmlns:xlink="http://www.w3.org/1999/xlink" xml:space="preserve" overflow="hidden"><defs><clipPath id="clip0"><rect x="55" y="435" width="19" height="19"/></clipPath></defs><g clip-path="url(#clip0)" transform="translate(-55 -435)"><path d="M70.0417 441.333 70.0417 442.917 68.4583 442.917 68.4583 441.333 70.0417 441.333ZM58.9583 448.458 60.5417 448.458 60.5417 450.042 58.9583 450.042 58.9583 448.458ZM62.9167 441.333 62.9167 442.917 61.3333 442.917 61.3333 441.333 62.9167 441.333ZM65.2917 441.333 65.2917 442.917 63.7083 442.917 63.7083 441.333 65.2917 441.333ZM67.6667 445.292 66.0833 445.292 66.0833 443.708 67.6667 443.708 67.6667 445.292ZM68.4583 445.292 68.4583 443.708 70.0417 443.708 70.0417 445.292 68.4583 445.292ZM68.4583 447.667 68.4583 446.083 70.0417 446.083 70.0417 447.667 68.4583 447.667ZM63.7083 448.458 65.2917 448.458 65.2917 450.042 63.7083 450.042 63.7083 448.458ZM62.9167 448.458 62.9167 450.042 61.3333 450.042 61.3333 448.458 62.9167 448.458ZM61.3333 446.083 62.9167 446.083 62.9167 447.667 61.3333 447.667 61.3333 446.083ZM60.5417 446.083 60.5417 447.667 58.9583 447.667 58.9583 446.083 60.5417 446.083ZM60.5417 443.708 60.5417 445.292 58.9583 445.292 58.9583 443.708 60.5417 443.708ZM62.9167 445.292 61.3333 445.292 61.3333 443.708 62.9167 443.708 62.9167 445.292ZM63.7083 445.292 63.7083 443.708 65.2917 443.708 65.2917 445.292 63.7083 445.292ZM65.2917 447.667 63.7083 447.667 63.7083 446.083 65.2917 446.083 65.2917 447.667ZM66.0833 447.667 66.0833 446.083 67.6667 446.083 67.6667 447.667 66.0833 447.667ZM67.6667 441.333 67.6667 442.917 66.0833 442.917 66.0833 441.333 67.6667 441.333ZM57.7708 440.146 57.7708 451.229 71.2292 451.229 71.2292 440.146 57.7708 440.146Z" fill="#FFFFFF"/><path d="M57.7708 437.771 71.2292 437.771 71.2292 439.354 57.7708 439.354Z" fill="#FFFFFF"/></g></svg>