<svg width="18" height="18" xmlns="http://www.w3.org/2000/svg" xmlns:xlink="http://www.w3.org/1999/xlink" xml:space="preserve" overflow="hidden"><defs><clipPath id="clip0"><rect x="57" y="527" width="18" height="18"/></clipPath></defs><g clip-path="url(#clip0)" transform="translate(-57 -527)"><path d="M72.375 542.675 68.625 539.112 72.375 535.55 72.375 542.675ZM60.225 543.125 63.9375 539.619 64.2 539.375C65.2125 538.419 66.8063 538.419 67.8187 539.375L68.0813 539.619 71.775 543.125 60.225 543.125ZM59.625 535.531 63.375 539.094 59.625 542.656 59.625 535.531ZM62.25 530.75 69.75 530.75 69.75 536.994 68.0625 538.606C66.8438 537.669 65.1562 537.669 63.9375 538.606L62.25 536.994 62.25 530.75ZM70.875 531.256 70.875 529.625 68.25 529.625 66 527.75 63.75 529.625 61.125 529.625 61.125 531.275 58.5 533.769 58.5 544.25 73.5 544.25 73.5 533.769 70.875 531.256Z" fill="#FFFFFF"/><path d="M66 534.931C65.6625 534.931 65.4 534.65 65.4 534.331 65.4 533.994 65.6813 533.731 66 533.731 66.3375 533.731 66.6 533.994 66.6 534.331 66.6 534.669 66.3375 534.931 66 534.931ZM66 536.75C66.4313 536.75 66.8438 536.638 67.2188 536.45 67.3688 536.356 67.425 536.169 67.35 536.019 67.2562 535.869 67.0687 535.812 66.9187 535.888 66.6375 536.037 66.3187 536.112 66 536.112 65.0062 536.112 64.1813 535.287 64.2 534.294 64.2 533.3 65.025 532.475 66.0188 532.475 67.0125 532.475 67.8375 533.281 67.8375 534.294L67.8375 534.894C67.5 534.894 67.2375 534.631 67.2375 534.294 67.2375 533.694 66.825 533.188 66.2438 533.075 65.6625 532.963 65.0813 533.281 64.875 533.825 64.6687 534.369 64.875 535.006 65.3812 535.306 65.8875 535.606 66.5437 535.513 66.9375 535.062 67.1625 535.325 67.5 535.475 67.8562 535.475 68.1937 535.475 68.4563 535.213 68.4563 534.875L68.4563 534.275C68.4563 532.925 67.3688 531.838 66.0188 531.838 64.6687 531.838 63.5812 532.925 63.5812 534.275 63.5625 535.644 64.65 536.731 66 536.75Z" fill="#FFFFFF"/></g></svg>