<svg width="22" height="22" xmlns="http://www.w3.org/2000/svg" xmlns:xlink="http://www.w3.org/1999/xlink" xml:space="preserve" overflow="hidden"><defs><clipPath id="clip0"><rect x="54" y="583" width="22" height="22"/></clipPath></defs><g clip-path="url(#clip0)" transform="translate(-54 -583)"><path d="M65 593.083C63.8542 593.083 62.9375 592.167 62.9375 591.021 62.9375 589.875 63.8542 588.958 65 588.958 66.1458 588.958 67.0625 589.875 67.0625 591.021 67.0625 592.167 66.1458 593.083 65 593.083ZM65 586.208C63.4188 586.208 61.9292 586.987 61.0354 588.317 60.1417 589.623 59.9583 591.296 60.5312 592.785L62.7083 597.598 64.5875 601.54C64.6562 601.7 64.8167 601.792 65 601.792 65.1833 601.792 65.3438 601.7 65.4125 601.54L67.2917 597.598 69.4688 592.785C70.0417 591.296 69.8583 589.623 68.9646 588.317 68.0708 586.987 66.5813 586.208 65 586.208Z" fill="#FFFFFF"/></g></svg>