<svg width="18" height="19" xmlns="http://www.w3.org/2000/svg" xmlns:xlink="http://www.w3.org/1999/xlink" xml:space="preserve" overflow="hidden"><defs><clipPath id="clip0"><rect x="57" y="466" width="18" height="19"/></clipPath></defs><g clip-path="url(#clip0)" transform="translate(-57 -466)"><path d="M7.35 5.475C7.5 5.325 7.59375 5.11875 7.59375 4.89375 7.59375 4.66875 7.5 4.4625 7.35 4.3125L4.7625 1.74375C4.6125 1.59375 4.40625 1.5 4.2 1.5 3.99375 1.5 3.76875 1.59375 3.61875 1.74375L3.3375 2.025 7.06875 5.75625 7.35 5.475Z" fill="#FFFFFF" transform="matrix(1 0 0 1.05556 57 466)"/><path d="M11.1187 12.0938C11.0438 12.1688 10.9312 12.2062 10.8375 12.2062 10.7437 12.2062 10.6313 12.1688 10.5562 12.0938L5.90625 7.4625C5.83125 7.3875 5.79375 7.275 5.79375 7.18125 5.79375 7.0875 5.83125 6.975 5.90625 6.9L6.4875 6.3375 2.75625 2.60625C2.5125 2.85 2.2875 3.075 2.1375 3.225 1.7625 3.58125 1.5375 4.05 1.51875 4.55625 1.4625 5.4 1.66875 6.20625 1.95 6.99375 2.25 7.6875 2.64375 8.34375 3.075 8.9625 4.6125 11.2687 6.54375 13.275 8.79375 14.8688 9.16875 15.15 9.5625 15.3937 9.975 15.6188 10.9125 16.0875 11.9062 16.425 12.975 16.5 13.6875 16.5563 14.4 16.275 14.8875 15.75L15.3937 15.2438 11.6812 11.5125 11.1187 12.0938Z" fill="#FFFFFF" transform="matrix(1 0 0 1.05556 57 466)"/><path d="M16.2562 13.2375 13.6688 10.65C13.5187 10.5 13.3125 10.4062 13.0875 10.4062 12.8625 10.4062 12.6562 10.5 12.5062 10.65L12.225 10.95 15.9562 14.6813 16.2375 14.4C16.3875 14.25 16.4813 14.0438 16.4813 13.8187 16.4813 13.5938 16.4062 13.3875 16.2562 13.2375Z" fill="#FFFFFF" transform="matrix(1 0 0 1.05556 57 466)"/></g></svg>