<svg width="130" height="124" xmlns="http://www.w3.org/2000/svg" xmlns:xlink="http://www.w3.org/1999/xlink" xml:space="preserve" overflow="hidden"><defs><filter id="fx0" x="-10%" y="-10%" width="120%" height="120%" filterUnits="userSpaceOnUse" primitiveUnits="userSpaceOnUse"><feComponentTransfer color-interpolation-filters="sRGB"><feFuncR type="discrete" tableValues="0 0"/><feFuncG type="discrete" tableValues="0 0"/><feFuncB type="discrete" tableValues="0 0"/><feFuncA type="linear" slope="0.4" intercept="0"/></feComponentTransfer><feGaussianBlur stdDeviation="7.63889 7.63889"/></filter><clipPath id="clip1"><rect x="860" y="344" width="130" height="124"/></clipPath><clipPath id="clip2"><path d="M886.5 370.5 886.5 441.5 963.5 406ZM860 344 990 344 990 468 860 468Z" fill-rule="evenodd" clip-rule="evenodd"/></clipPath><clipPath id="clip3"><rect x="-7" y="-7" width="145" height="138"/></clipPath><clipPath id="clip4"><rect x="0" y="0" width="130" height="124"/></clipPath></defs><g clip-path="url(#clip1)" transform="translate(-860 -344)"><g clip-path="url(#clip2)"><g clip-path="url(#clip3)" filter="url(#fx0)" transform="translate(860 344)"><g clip-path="url(#clip4)"><path d="M0 78.54 36.2099 0 72.4198 78.54Z" stroke="#708C30" stroke-width="4" stroke-linejoin="round" stroke-miterlimit="10" fill="#98B52D" fill-rule="evenodd" transform="matrix(-6.12323e-17 -1 -1 6.12323e-17 104.27 98.2099)"/></g></g></g><path d="M0 77 35.4999 0 70.9998 77Z" stroke="#708C30" stroke-width="3.4375" stroke-linejoin="round" stroke-miterlimit="10" fill="#98B52D" fill-rule="evenodd" transform="matrix(-6.12323e-17 -1 -1 6.12323e-17 963.5 441.5)"/></g></svg>